<svg width="48" height="48" viewBox="0 0 48 48" fill="none" xmlns="http://www.w3.org/2000/svg">
<rect width="48" height="48" rx="6" fill="#31313C"/>
<path d="M25.4994 20.4994L28.5 32.554V34.0012L25.4994 37H22.5006L19.5 33.9994V32.5522L22.5006 20.4994H25.4994ZM15 14.5L19.5 19L16.4994 26.5006L11.9994 22.0006L13.5006 19H9.0006L6 14.5H15ZM42 14.5L38.9994 19H34.4994L36.0006 22.0006L31.5006 26.5006L28.5 19L33 14.5H42ZM27.1374 10L28.5 11.4994V13.0006L25.4994 17.5006H22.5006L19.5 13.0006V11.4994L20.8626 10H27.1374Z" fill="#EA5A11"/>
</svg>