<svg width="48" height="48" viewBox="0 0 48 48" fill="none" xmlns="http://www.w3.org/2000/svg">
<rect width="48" height="48" rx="6" fill="#31313C"/>
<path d="M12.852 6C15.696 8.178 22.896 15.0414 25.4088 23.9154C27.9216 32.7894 25.4088 42 25.4088 42C20.4606 36.3048 14.8014 32.64 14.2848 32.3124L14.2488 32.289C13.41 27.2652 9 18.222 9 18.222C15.3648 19.7826 17.874 25.9242 17.874 25.9242C17.2044 18.0564 12.852 6 12.852 6ZM39.8088 16.6326C39.8088 16.6326 37.5714 21.0804 36.5436 24.9198C36.1206 26.5002 36.0306 28.8798 36.0216 30.4242V30.9318C36.027 31.5564 36.0396 31.9542 36.0396 31.9542C36.0396 31.9542 32.9112 36.2688 29.9556 38.5746C30.114 35.6928 30.0672 32.3916 29.5812 28.9734C31.2516 25.332 34.704 19.1562 39.8088 16.6326ZM35.9856 7.0368C35.9856 7.0368 31.8006 12.5304 30.8808 17.889C30.6828 19.0338 30.519 20.0382 30.3696 20.94C29.6874 21.9912 29.0556 23.0388 28.4796 24.0594C28.4202 23.8344 28.3716 23.6094 28.3086 23.3844C27.765 21.4584 27.0414 19.6134 26.2206 17.8404C26.316 17.5776 26.406 17.3184 26.5266 17.052C26.5266 17.052 29.7918 10.248 35.9856 7.0368Z" fill="#F05B07"/>
</svg>